# xmcd
#
# Track frame offsets: 
#        150
#        12490
#        23977
#        36560
#        48465
#        59477
#        70157
#        84165
#        97432
#        111087
#        125160
#        136935
#        148350
#        160827
#        172557
#        186700
#        201852
#        214630
#        226045
#        238050
#        249990
#        263137
#        273632
#        285150
#        296165
#        305980
#        316255
#        329362
#
# Disc length: 4558 seconds
#
# Revision: 5
# Processed by: cddbd v1.5.2PL0 Copyright (c) Steve Scherf et al.
# Submitted via: ExactAudioCopy v0.99pb5
#
DISCID=b311cc1c
DTITLE=Various Artist - And The Answer Is! Great Country Answer Discs From Th
DTITLE=e '50s And their Original Versions
DYEAR=1994
DGENRE=Oldies
TTITLE0=Hank Thompson and His Brazos Valley Boys - The wild side of life
TTITLE1=Kitty Wells - It wasn't God who made honky tonk angels
TTITLE2=Webb Pierce - Back street affair
TTITLE3=Kitty Wells - Paying for that back street affair
TTITLE4=Webb Pierce - There stands the glass
TTITLE5=Betty Cody - Please throw away the glass
TTITLE6=Hank Thompson - Yesterday's girl
TTITLE7=Goldie Hill - I'm yesterday's girl
TTITLE8=Davis Sisters - I forgot more than you'll ever know
TTITLE9=Betty Cody - I found out more than you ever knew about him
TTITLE10=Eddy Arnold, The Tennessee Plowboy And His Guitar - I really 
TTITLE10=don't want to know
TTITLE11=Betty Cody - I really want you to know
TTITLE12=Skeets McDonald - Don't let the stars get in your eyes
TTITLE13=Goldie Hill - I let the stars get in my eyes
TTITLE14=Lefty Frizzell - The long black veil
TTITLE15=Marijohn Wilkin - My long black veil
TTITLE16=Patsy Cline - I fall to pieces
TTITLE17=Gerrie Lynn - I'll pick up the pieces
TTITLE18=Jim Reeves - Mexican Joe
TTITLE19=Carolyn Bradshaw - The marriage of Mexican Joe
TTITLE20=Hank Williams - Jambalaya (on the bayou)
TTITLE21=Goldie Hill - I'm Yvonne (from the bayou)
TTITLE22=Jean Shepard and Ferlin Husky - A dear John letter
TTITLE23=Jean Shepard and Ferlin Husky - Forgive me, John
TTITLE24=Hank Locklin - Geisha girl
TTITLE25=Skeeter Davis - Lost to a geisha girl
TTITLE26=Bobby Helms - Fraulein
TTITLE27=Kitty Wells - (I'll always be your) fraulein
EXTD=
EXTT0=
EXTT1=
EXTT2=
EXTT3=
EXTT4=
EXTT5=
EXTT6=
EXTT7=
EXTT8=
EXTT9=
EXTT10=
EXTT11=
EXTT12=
EXTT13=
EXTT14=
EXTT15=
EXTT16=
EXTT17=
EXTT18=
EXTT19=
EXTT20=
EXTT21=
EXTT22=
EXTT23=
EXTT24=
EXTT25=
EXTT26=
EXTT27=
PLAYORDER=
